<svg xmlns="http://www.w3.org/2000/svg" xmlns:xlink="http://www.w3.org/1999/xlink" contentStyleType="text/css" data-diagram-type="DESCRIPTION" height="365px" preserveAspectRatio="none" style="width:746px;height:365px;background:#FFFFFF;" version="1.1" viewBox="0 0 746 365" width="746px" zoomAndPan="magnify"><defs/><g><!--cluster Your Machine--><g class="cluster" data-entity="Your Machine" data-source-line="8" data-uid="ent0003" id="cluster_Your Machine"><rect fill="none" height="114" rx="2.5" ry="2.5" style="stroke:#181818;stroke-width:1;" width="186" x="38.56" y="106.5"/><text fill="#000000" font-family="sans-serif" font-size="14" font-weight="bold" lengthAdjust="spacing" textLength="107.4063" x="77.8569" y="121.4951">Your Machine</text></g><!--cluster Docker Network--><g class="cluster" data-entity="Docker Network" data-source-line="12" data-uid="ent0005" id="cluster_Docker Network"><rect fill="none" height="253" rx="2.5" ry="2.5" style="stroke:#181818;stroke-width:1;" width="492" x="248.56" y="106.5"/><text fill="#000000" font-family="sans-serif" font-size="14" font-weight="bold" lengthAdjust="spacing" textLength="126.793" x="431.1635" y="121.4951">Docker Network</text></g><!--entity App--><g class="entity" data-entity="App" data-source-line="9" data-uid="ent0004" id="entity_App"><rect fill="#F1F1F1" height="62.5938" rx="2.5" ry="2.5" style="stroke:#181818;stroke-width:0.5;" width="153.6543" x="54.56" y="141.5"/><rect fill="#F1F1F1" height="10" style="stroke:#181818;stroke-width:0.5;" width="15" x="188.2143" y="146.5"/><rect fill="#F1F1F1" height="2" style="stroke:#181818;stroke-width:0.5;" width="4" x="186.2143" y="148.5"/><rect fill="#F1F1F1" height="2" style="stroke:#181818;stroke-width:0.5;" width="4" x="186.2143" y="152.5"/><text fill="#000000" font-family="sans-serif" font-size="14" lengthAdjust="spacing" textLength="113.6543" x="69.56" y="174.4951">Spring Boot App</text><text fill="#000000" font-family="sans-serif" font-size="14" lengthAdjust="spacing" textLength="73.0488" x="69.56" y="190.792">Port: 8080</text></g><!--entity DB--><g class="entity" data-entity="DB" data-source-line="13" data-uid="ent0006" id="entity_DB"><path d="M623.06,152 C623.06,142 673.4365,142 673.4365,142 C673.4365,142 723.8129,142 723.8129,152 L723.8129,193.5938 C723.8129,203.5938 673.4365,203.5938 673.4365,203.5938 C673.4365,203.5938 623.06,203.5938 623.06,193.5938 L623.06,152" fill="#F1F1F1" style="stroke:#181818;stroke-width:0.5;"/><path d="M623.06,152 C623.06,162 673.4365,162 673.4365,162 C673.4365,162 723.8129,162 723.8129,152" fill="none" style="stroke:#181818;stroke-width:0.5;"/><text fill="#000000" font-family="sans-serif" font-size="14" lengthAdjust="spacing" textLength="80.7529" x="633.06" y="178.9951">PostgreSQL</text><text fill="#000000" font-family="sans-serif" font-size="14" lengthAdjust="spacing" textLength="73.0488" x="633.06" y="195.292">Port: 5432</text></g><!--entity Prom--><g class="entity" data-entity="Prom" data-source-line="14" data-uid="ent0007" id="entity_Prom"><rect fill="#F1F1F1" height="78.8906" rx="2.5" ry="2.5" style="stroke:#181818;stroke-width:0.5;" width="193.0635" x="265.06" y="264.5"/><rect fill="#F1F1F1" height="10" style="stroke:#181818;stroke-width:0.5;" width="15" x="438.1235" y="269.5"/><rect fill="#F1F1F1" height="2" style="stroke:#181818;stroke-width:0.5;" width="4" x="436.1235" y="271.5"/><rect fill="#F1F1F1" height="2" style="stroke:#181818;stroke-width:0.5;" width="4" x="436.1235" y="275.5"/><text fill="#000000" font-family="sans-serif" font-size="14" lengthAdjust="spacing" textLength="84.1572" x="280.06" y="297.4951">Prometheus</text><text fill="#000000" font-family="sans-serif" font-size="14" lengthAdjust="spacing" textLength="153.0635" x="280.06" y="313.792">/actuator/prometheus</text><text fill="#000000" font-family="sans-serif" font-size="14" lengthAdjust="spacing" textLength="73.0488" x="280.06" y="330.0889">Port: 9090</text></g><!--entity Dash--><g class="entity" data-entity="Dash" data-source-line="15" data-uid="ent0008" id="entity_Dash"><rect fill="#F1F1F1" height="62.5938" rx="2.5" ry="2.5" style="stroke:#181818;stroke-width:0.5;" width="175.4609" x="413.06" y="141.5"/><rect fill="#F1F1F1" height="10" style="stroke:#181818;stroke-width:0.5;" width="15" x="568.5209" y="146.5"/><rect fill="#F1F1F1" height="2" style="stroke:#181818;stroke-width:0.5;" width="4" x="566.5209" y="148.5"/><rect fill="#F1F1F1" height="2" style="stroke:#181818;stroke-width:0.5;" width="4" x="566.5209" y="152.5"/><text fill="#000000" font-family="sans-serif" font-size="14" lengthAdjust="spacing" textLength="135.4609" x="428.06" y="174.4951">JobRunr Dashboard</text><text fill="#000000" font-family="sans-serif" font-size="14" lengthAdjust="spacing" textLength="73.0488" x="428.06" y="190.792">Port: 8000</text></g><!--entity Graf--><g class="entity" data-entity="Graf" data-source-line="16" data-uid="ent0009" id="entity_Graf"><rect fill="#F1F1F1" height="62.5938" rx="2.5" ry="2.5" style="stroke:#181818;stroke-width:0.5;" width="113.0488" x="265.06" y="141.5"/><rect fill="#F1F1F1" height="10" style="stroke:#181818;stroke-width:0.5;" width="15" x="358.1088" y="146.5"/><rect fill="#F1F1F1" height="2" style="stroke:#181818;stroke-width:0.5;" width="4" x="356.1088" y="148.5"/><rect fill="#F1F1F1" height="2" style="stroke:#181818;stroke-width:0.5;" width="4" x="356.1088" y="152.5"/><text fill="#000000" font-family="sans-serif" font-size="14" lengthAdjust="spacing" textLength="56.1436" x="280.06" y="174.4951">Grafana</text><text fill="#000000" font-family="sans-serif" font-size="14" lengthAdjust="spacing" textLength="73.0488" x="280.06" y="190.792">Port: 3000</text></g><!--entity User--><g class="entity" data-entity="User" data-source-line="6" data-uid="ent0002" id="entity_User"><ellipse cx="321.5151" cy="14" fill="#F1F1F1" rx="8" ry="8" style="stroke:#181818;stroke-width:0.5;"/><path d="M321.5151,22 L321.5151,49 M308.5151,30 L334.5151,30 M321.5151,49 L308.5151,64 M321.5151,49 L334.5151,64" fill="none" style="stroke:#181818;stroke-width:0.5;"/><text fill="#000000" font-family="sans-serif" font-size="14" lengthAdjust="spacing" textLength="31.9102" x="305.56" y="78.4951">User</text></g><!--link User to App--><g class="link" data-entity-1="User" data-entity-2="App" data-source-line="20" data-uid="lnk10" id="link_User_App"><path d="M305.5,43.5 C264.15,43.5 157.22,43.5 157.22,43.5 C157.22,43.5 157.22,96.98 157.22,135.32" fill="none" id="User-to-App" style="stroke:#181818;stroke-width:1;"/><polygon fill="#181818" points="157.22,141.32,161.22,132.32,157.22,136.32,153.22,132.32,157.22,141.32" style="stroke:#181818;stroke-width:1;"/><text fill="#000000" font-family="sans-serif" font-size="13" lengthAdjust="spacing" textLength="138.9438" x="43.45" y="39.5669">1. curl / Python script</text></g><!--link App to DB--><g class="link" data-entity-1="App" data-entity-2="DB" data-source-line="21" data-uid="lnk11" id="link_App_DB"><path d="M105.89,141.17 C105.89,126.16 105.89,111.5 105.89,111.5 C105.89,111.5 673.56,111.5 673.56,111.5 C673.56,111.5 673.56,120.64 673.56,135.89" fill="none" id="App-to-DB" style="stroke:#181818;stroke-width:1;"/><polygon fill="#181818" points="673.56,141.89,677.56,132.89,673.56,136.89,669.56,132.89,673.56,141.89" style="stroke:#181818;stroke-width:1;"/><text fill="#000000" font-family="sans-serif" font-size="13" lengthAdjust="spacing" textLength="119.228" x="270.08" y="124.5669">2. Writes job state</text></g><!--link App to Prom--><g class="link" data-entity-1="App" data-entity-2="Prom" data-source-line="22" data-uid="lnk12" id="link_App_Prom"><path d="M157.22,204.76 C157.22,239.86 157.22,291.5 157.22,291.5 C157.22,291.5 205.96,291.5 258.77,291.5" fill="none" id="App-to-Prom" style="stroke:#181818;stroke-width:1;"/><polygon fill="#181818" points="264.77,291.5,255.77,287.5,259.77,291.5,255.77,295.5,264.77,291.5" style="stroke:#181818;stroke-width:1;"/><text fill="#000000" font-family="sans-serif" font-size="13" lengthAdjust="spacing" textLength="122.9604" x="44.63" y="287.5669">3. Exposes metrics</text></g><!--link Prom to App--><g class="link" data-entity-1="Prom" data-entity-2="App" data-source-line="23" data-uid="lnk13" id="link_Prom_App"><path d="M264.9,317.5 C192.5,317.5 105.89,317.5 105.89,317.5 C105.89,317.5 105.89,253.25 105.89,210.71" fill="none" id="Prom-to-App" style="stroke:#181818;stroke-width:1;"/><polygon fill="#181818" points="105.89,204.71,101.89,213.71,105.89,209.71,109.89,213.71,105.89,204.71" style="stroke:#181818;stroke-width:1;"/><text fill="#000000" font-family="sans-serif" font-size="13" lengthAdjust="spacing" textLength="121.0371" x="7" y="313.5669">4. Scrapes metrics</text></g><!--link Graf to Prom--><g class="link" data-entity-1="Graf" data-entity-2="Prom" data-source-line="24" data-uid="lnk14" id="link_Graf_Prom"><path d="M321.56,204.71 C321.56,222.58 321.56,239.07 321.56,258.13" fill="none" id="Graf-to-Prom" style="stroke:#181818;stroke-width:1;"/><polygon fill="#181818" points="321.56,264.13,325.56,255.13,321.56,259.13,317.56,255.13,321.56,264.13" style="stroke:#181818;stroke-width:1;"/><text fill="#000000" font-family="sans-serif" font-size="13" lengthAdjust="spacing" textLength="119.501" x="201.56" y="230.4869">5. Queries metrics</text></g><!--link User to Dash--><g class="link" data-entity-1="User" data-entity-2="Dash" data-source-line="25" data-uid="lnk15" id="link_User_Dash"><path d="M337.76,43.5 C381.82,43.5 500.56,43.5 500.56,43.5 C500.56,43.5 500.56,96.98 500.56,135.32" fill="none" id="User-to-Dash" style="stroke:#181818;stroke-width:1;"/><polygon fill="#181818" points="500.56,141.32,504.56,132.32,500.56,136.32,496.56,132.32,500.56,141.32" style="stroke:#181818;stroke-width:1;"/><text fill="#000000" font-family="sans-serif" font-size="13" lengthAdjust="spacing" textLength="112.7979" x="355.07" y="39.5669">Views Dashboard</text></g><!--link User to Graf--><g class="link" data-entity-1="User" data-entity-2="Graf" data-source-line="26" data-uid="lnk16" id="link_User_Graf"><path d="M321.56,81.65 C321.56,100.6 321.56,117.23 321.56,135.23" fill="none" id="User-to-Graf" style="stroke:#181818;stroke-width:1;"/><polygon fill="#181818" points="321.56,141.23,325.56,132.23,321.56,136.23,317.56,132.23,321.56,141.23" style="stroke:#181818;stroke-width:1;"/><text fill="#000000" font-family="sans-serif" font-size="13" lengthAdjust="spacing" textLength="112.7979" x="208.56" y="107.5069">Views Dashboard</text></g><!--SRC=[PP51ImD138Nlyoj2BvxSLgkW7WHBHHILQb4HzP2TnkxOTZ9aicWH_xipNTikECUyBoylcJXpFg3W0kREaou30OjMRE96MB1dMmal25HgCie1bA5aLLx0n0bPTUnR7G7j3ASqrkMS8CleftCo1gsom4CaCUQFWSuprm8tQAiqlmFV1j9x6GTnVWe3PeMp45xzAAKwWQFUKUyDCEQQ-McP3DdEIE2Mz9DbjhQPe6A9CUaZZZeL6jzThwqE3_hxdMmr73GZHtb3hQYEhxwRajQOmdP3gzeq7lUEcmoveMczulA-zW93Z5N9A9Djtbx3PgLXBmJVqUEQwA-9NCyhxS2bLn9StJIQV2pOtJtD6yC9x1LWQvb35qRBz4iUeXKNr6GrKyD1WlOBU1Ad5E63IuYAIXiWXqv8lu3phy0nCMazSJQQbRATT530s0g65f4ZjaqE2xYhILmBsSJD2oVaqT5dtDvbgw-y_kc_]--></g></svg>